<svg xmlns="http://www.w3.org/2000/svg" width="90.729" height="90.73" viewBox="0 0 90.729 90.73">
  <path id="facebook_2_" data-name="facebook (2)" d="M13.29,90.731H42.884V58.479H32.252V47.846H42.884V34.556a13.306,13.306,0,0,1,13.29-13.291h13.29V31.9H58.833a5.322,5.322,0,0,0-5.316,5.316V47.846H68.985L67.213,58.479h-13.7V90.731H77.439A13.306,13.306,0,0,0,90.73,77.44V13.291A13.306,13.306,0,0,0,77.439,0H13.29A13.306,13.306,0,0,0,0,13.291V77.44A13.306,13.306,0,0,0,13.29,90.731Z" fill="#fff"/>
</svg>
