<svg id="linkedin_1_" data-name="linkedin (1)" xmlns="http://www.w3.org/2000/svg" width="90.731" height="90.731" viewBox="0 0 90.731 90.731">
  <path id="Exclusión_1" data-name="Exclusión 1" d="M-14638.469,6206.909h-64.151a13.305,13.305,0,0,1-13.288-13.292V6129.47a13.305,13.305,0,0,1,13.288-13.292h64.151a13.307,13.307,0,0,1,13.292,13.292v64.147A13.307,13.307,0,0,1-14638.469,6206.909Zm-21.443-37.567a2.66,2.66,0,0,1,2.659,2.655v18.961h15.947v-20.789a17.4,17.4,0,0,0-4.608-11.61,15.34,15.34,0,0,0-11.324-5.167h-.015a15.85,15.85,0,0,0-5.314.9v-.9h-15.951v37.567h15.951V6172A2.658,2.658,0,0,1-14659.912,6169.342Zm-39.871-15.951v37.567h15.95v-37.567Zm0-21.266v15.951h15.95v-15.951Zm31.9,53.519h-5.314v-26.935h5.314v5.318l4.255-3.195a10.547,10.547,0,0,1,6.378-2.124h.012c5.658,0,10.621,5.359,10.621,11.46v15.474h-5.318V6172a7.983,7.983,0,0,0-7.974-7.974,7.983,7.983,0,0,0-7.974,7.974v13.646Zm-21.265,0h-5.315v-26.935h5.315v26.934Zm0-42.885h-5.315v-5.314h5.315v5.313Z" transform="translate(14715.908 -6116.178)" fill="#fff"/>
</svg>
