<svg xmlns="http://www.w3.org/2000/svg" width="311.282" height="311.144" viewBox="0 0 311.282 311.144">
  <path id="Trazado_304" data-name="Trazado 304" d="M325.927-1552.471a161.726,161.726,0,0,0-37.989,7.531,156.09,156.09,0,0,0-90.381,78.721c-8.89,17.975-13.845,35.924-15.715,57.031a223.613,223.613,0,0,0,.122,25.5,158.558,158.558,0,0,0,11.853,47.631c1.773,4.18,6.339,13.264,8.72,17.344a156.965,156.965,0,0,0,63.274,60.02,154.915,154.915,0,0,0,60.359,16.881,183.609,183.609,0,0,0,27.69-.535,155.237,155.237,0,0,0,60.8-19.723,155.759,155.759,0,0,0,75.953-108.863,155.745,155.745,0,0,0-81.661-164.418,156.052,156.052,0,0,0-56.789-16.809C347.739-1552.615,330.372-1552.834,325.927-1552.471Zm5.829,28.639v18.457H270.3v-20.67l3.959-1.918a147.117,147.117,0,0,1,56.716-14.3l.777-.025Zm17.853-17.951a146.21,146.21,0,0,1,51.445,14.33l2.842,1.434v20.645H342.443v-36.941l2.016.145C345.552-1542.1,347.884-1541.9,349.609-1541.783Zm-89.822,36.338c-.048.047-4.4.047-9.667.023l-9.57-.072,2.672-2.26c3.595-3.061,8.647-6.873,12.946-9.811l3.571-2.408.073,7.215C259.835-1508.8,259.835-1505.494,259.787-1505.445Zm158.367-12.049c4.785,3.205,13.456,9.91,15.011,11.635l.438.484H414.34v-7.311c0-5.756.073-7.262.316-7.115C414.8-1519.7,416.38-1518.66,418.153-1517.494Zm-122.345,37.988v15.424H234.356v-30.848h61.452Zm72.139,0v15.424H306.253v-30.848h61.695Zm71.9,0v15.424H378.392v-30.848h61.452Zm-216.175,3.766v11.658h-15.3l.607-1.238c1.19-2.33,4.809-8.355,7.092-11.8,2.21-3.354,7.263-10.275,7.481-10.275C223.62-1487.4,223.669-1482.152,223.669-1475.74Zm229.68-8.209a144.268,144.268,0,0,1,10.833,16.662c.9,1.676,1.651,3.061,1.651,3.107s-3.449.1-7.651.1h-7.651v-11.658c0-6.412.049-11.66.122-11.66S451.94-1485.846,453.349-1483.949ZM259.86-1438.334v15.3H194.23l.146-.924a154.249,154.249,0,0,1,7.6-26.232l1.36-3.451H259.86Zm71.9,0v15.3H270.3v-30.607h61.452Zm72.139,0v15.3H342.443v-30.607H403.9Zm68.448-11.609c1.676,4.3,3.546,9.934,4.785,14.328.9,3.279,2.793,11.439,2.793,12.145,0,.412-1.725.439-32.791.439H414.34v-30.607h56.57Zm-248.675,52.9v15.3l-15.472-.049-15.5-.072-.316-3.4a205.671,205.671,0,0,1-.073-22.9l.34-4.178h31.018Zm72.139,0v15.3H234.356v-30.6h61.452Zm72.139,0v15.3H306.253v-30.6h61.695Zm71.9,0v15.3H378.392v-30.6h61.452Zm41.851-13.674a154.407,154.407,0,0,1,.146,25.5l-.292,3.475H450.531v-30.6h31.017ZM259.86-1355.992v15.3H203.338l-1.287-3.23a166.154,166.154,0,0,1-5.319-16.2c-.9-3.447-2.453-10.348-2.453-10.932,0-.166,10.979-.24,32.791-.24H259.86Zm71.9,0v15.3H270.3v-30.6h61.452Zm72.139,0v15.3H342.443v-30.6H403.9Zm76.026-14.916c0,.2-.389,2.139-.85,4.3a145.374,145.374,0,0,1-6.679,22.1l-1.482,3.814H414.34v-30.6H447.13C476.764-1371.295,479.921-1371.248,479.921-1370.908Zm-256.253,52.441c0,6.34-.049,11.539-.121,11.539-.194,0-5.149-6.73-7.165-9.717-2.891-4.322-7.773-12.607-7.773-13.191,0-.1,3.4-.17,7.53-.17h7.53Zm72.139,3.766v15.3H234.356v-30.607h61.452Zm72.139,0v15.3H306.253v-30.607h61.695Zm71.9,0v15.3H378.392v-30.607h61.452Zm25.431-14.283c-.316.582-1.166,2.088-1.87,3.352a157.361,157.361,0,0,1-11.028,16.615l-1.846,2.4v-23.393h15.327Zm-205.415,47.34v7.313l-.9-.559c-4.324-2.576-16.493-11.83-18.023-13.676-.291-.363.462-.389,9.3-.389h9.619Zm71.9,11.148v18.461h-.534c-1.287,0-7.6-.508-10.639-.873a144.462,144.462,0,0,1-45.834-13.215l-4.445-2.162v-20.67h61.452Zm72.091-8.088-.073,10.348-2.793,1.408a145.328,145.328,0,0,1-45.373,13.7c-3.012.387-10.93,1.094-12.363,1.094h-.8v-36.92H403.9Zm28.54-9.131c-4.615,4.08-14.622,11.535-17.488,13.066l-.559.291v-14.6H433.8Z" transform="translate(-181.535 1552.653)"/>
</svg>
